<svg width="43" height="57" viewBox="0 0 43 57" fill="none" xmlns="http://www.w3.org/2000/svg">
<path d="M21.5 0.713867C21.5 0.713867 0 23.2142 0 36.5477C0 47.6145 9.63917 56.5479 21.5 56.5479C27.2022 56.5479 32.6708 54.4408 36.7028 50.69C40.7348 46.9392 43 41.8521 43 36.5477C43 23.2142 21.5 0.713867 21.5 0.713867ZM30.3508 23.1142L34.1492 26.6475L12.6492 46.6478L8.85083 43.1144M13.4375 23.2142C14.6254 23.2142 15.7647 23.6531 16.6047 24.4346C17.4448 25.216 17.9167 26.2758 17.9167 27.3809C17.9167 28.486 17.4448 29.5458 16.6047 30.3272C15.7647 31.1086 14.6254 31.5476 13.4375 31.5476C12.2496 31.5476 11.1103 31.1086 10.2703 30.3272C9.43024 29.5458 8.95833 28.486 8.95833 27.3809C8.95833 26.2758 9.43024 25.216 10.2703 24.4346C11.1103 23.6531 12.2496 23.2142 13.4375 23.2142ZM29.5625 38.2143C30.7504 38.2143 31.8897 38.6533 32.7297 39.4348C33.5698 40.2162 34.0417 41.276 34.0417 42.3811C34.0417 43.4862 33.5698 44.546 32.7297 45.3274C31.8897 46.1088 30.7504 46.5478 29.5625 46.5478C28.3746 46.5478 27.2353 46.1088 26.3953 45.3274C25.5552 44.546 25.0833 43.4862 25.0833 42.3811C25.0833 41.276 25.5552 40.2162 26.3953 39.4348C27.2353 38.6533 28.3746 38.2143 29.5625 38.2143Z" fill="#6F6F6F"/>
</svg>
