<svg width="35" height="37" viewBox="0 0 35 37" fill="none" xmlns="http://www.w3.org/2000/svg">
<path d="M23.3738 33.1053C23.3741 34.0879 23.001 35.0343 22.3293 35.7547C21.6575 36.4752 20.7368 36.9166 19.7517 36.9903L19.458 37H15.5423C14.5544 37.0003 13.6029 36.6292 12.8785 35.9611C12.1541 35.293 11.7104 34.3772 11.6363 33.3974L11.6265 33.1053H23.3738ZM17.5002 1.85792e-09C21.0537 -5.8314e-05 24.4683 1.37269 27.0237 3.82867C29.5792 6.28466 31.0756 9.63185 31.1975 13.1642L31.2053 13.6316V20.9615L34.7726 28.0577C34.9282 28.3673 35.0062 28.7099 34.9996 29.056C34.9931 29.4021 34.9023 29.7415 34.7351 30.0451C34.5678 30.3487 34.3291 30.6075 34.0393 30.7993C33.7495 30.991 33.4173 31.1101 33.0712 31.1462L32.846 31.1579H2.1543C1.80612 31.158 1.46311 31.0741 1.15465 30.9135C0.846196 30.7528 0.581497 30.5202 0.383239 30.2355C0.184981 29.9508 0.0590741 29.6226 0.0163079 29.2789C-0.0264583 28.9352 0.0151915 28.5863 0.137688 28.2622L0.22775 28.0577L3.795 20.9615V13.6316C3.795 10.0163 5.23894 6.54901 7.80915 3.9926C10.3794 1.43618 13.8653 1.85792e-09 17.5002 1.85792e-09Z" fill="#949494"/>
</svg>
