<svg width="37" height="37" viewBox="0 0 37 37" fill="none" xmlns="http://www.w3.org/2000/svg">
<g clip-path="url(#clip0_498_620)">
<path d="M31.7265 0H5.27358C2.36576 0 0 2.36576 0 5.27358V31.7264C0 34.6343 2.36576 37 5.27358 37H31.7264C34.6343 37 37 34.6343 37 31.7265V5.27358C37 2.36576 34.6343 0 31.7265 0ZM34.0108 31.7264C34.0108 32.986 32.986 34.0108 31.7265 34.0108H5.27358C4.01399 34.0108 2.9892 32.986 2.9892 31.7265V5.27358C2.9892 4.01399 4.01399 2.9892 5.27358 2.9892H31.7264C32.986 2.9892 34.0108 4.01399 34.0108 5.27358V31.7264Z" fill="#F3F3F3"/>
<path d="M25.2244 23.1116L13.8874 11.7746C13.3038 11.191 12.3574 11.191 11.7737 11.7746C11.19 12.3583 11.19 13.3046 11.7737 13.8883L23.1107 25.2253C23.4025 25.5172 23.785 25.6631 24.1675 25.6631C24.5501 25.6631 24.9326 25.5172 25.2244 25.2253C25.808 24.6417 25.808 23.6953 25.2244 23.1116Z" fill="#F3F3F3"/>
<path d="M25.2244 11.7746C24.6407 11.191 23.6944 11.191 23.1107 11.7746L11.7737 23.1116C11.19 23.6953 11.19 24.6416 11.7737 25.2253C12.0655 25.5172 12.4481 25.6631 12.8306 25.6631C13.2131 25.6631 13.5956 25.5172 13.8874 25.2253L25.2244 13.8883C25.8081 13.3047 25.8081 12.3584 25.2244 11.7746Z" fill="#F3F3F3"/>
</g>
<defs>
<clipPath id="clip0_498_620">
<rect width="37" height="37" fill="white"/>
</clipPath>
</defs>
</svg>
