<svg width="75" height="75" viewBox="0 0 54 75" fill="none" xmlns="http://www.w3.org/2000/svg">
<path d="M53.25 26.2527C53.2505 21.2209 51.8048 16.295 49.0851 12.0616C46.3654 7.82825 42.4863 4.46572 37.9097 2.37449C33.3331 0.283259 28.2519 -0.448554 23.2712 0.266202C18.2905 0.980957 13.6201 3.11216 9.81634 6.40602C6.01253 9.69987 3.23556 14.0176 1.81612 18.845C0.396682 23.6723 0.394588 28.806 1.81009 33.6345C3.22559 38.463 5.99903 42.783 9.80015 46.08C13.6013 49.3769 18.2699 51.512 23.25 52.2308V57.5026H14.5C13.5054 57.5026 12.5516 57.8977 11.8483 58.601C11.1451 59.3043 10.75 60.2581 10.75 61.2526C10.75 62.2472 11.1451 63.201 11.8483 63.9043C12.5516 64.6076 13.5054 65.0026 14.5 65.0026H23.25V71.2526C23.25 72.2472 23.6451 73.201 24.3483 73.9043C25.0516 74.6076 26.0054 75.0026 27 75.0026C27.9946 75.0026 28.9484 74.6076 29.6516 73.9043C30.3549 73.201 30.75 72.2472 30.75 71.2526V65.0026H39.5C40.4946 65.0026 41.4484 64.6076 42.1516 63.9043C42.8549 63.201 43.25 62.2472 43.25 61.2526C43.25 60.2581 42.8549 59.3043 42.1516 58.601C41.4484 57.8977 40.4946 57.5026 39.5 57.5026H30.75V52.2308C36.9938 51.3217 42.7023 48.1972 46.8331 43.4278C50.964 38.6583 53.2416 32.5623 53.25 26.2527ZM8.25 26.2527C8.25 22.5443 9.34967 18.9191 11.4099 15.8357C13.4702 12.7523 16.3986 10.3491 19.8247 8.92991C23.2508 7.51077 27.0208 7.13945 30.6579 7.86293C34.2951 8.5864 37.636 10.3722 40.2583 12.9944C42.8805 15.6166 44.6663 18.9576 45.3897 22.5947C46.1132 26.2319 45.7419 30.0018 44.3227 33.428C42.9036 36.8541 40.5004 39.7824 37.4169 41.8427C34.3335 43.903 30.7084 45.0026 27 45.0026C22.029 44.9969 17.2632 43.0196 13.7481 39.5045C10.2331 35.9895 8.25579 31.2237 8.25 26.2527Z" fill="#FF4C6C"/>
</svg>
