<svg width="75" height="75" viewBox="0 0 75 54" fill="none" xmlns="http://www.w3.org/2000/svg">
<path d="M35.8418 1.11621L31.9819 10.7451H13.9692L11.9771 15.8501C16.0721 15.8778 19.7521 16.5142 23.0171 17.7593C26.2821 19.0044 28.8691 20.8582 30.7783 23.3208C32.7152 25.7834 33.6836 28.8685 33.6836 32.5762C33.6836 35.4538 33.0887 38.1377 31.8989 40.6279C30.7368 43.1182 29.1458 45.304 27.126 47.1855C25.1061 49.0394 22.8372 50.492 20.3193 51.5435C17.8014 52.5672 15.1867 53.0791 12.4751 53.0791C10.7596 53.0791 9.0026 52.8716 7.2041 52.4565C5.43327 52.0415 3.93913 51.3221 2.72168 50.2983C1.50423 49.2746 0.895508 47.8634 0.895508 46.0649C0.895508 45.0688 1.25521 44.1004 1.97461 43.1597C2.69401 42.2189 3.81462 41.7485 5.33643 41.7485C6.5262 41.7485 7.5638 42.0529 8.44922 42.6616C9.3623 43.2703 10.2616 43.9759 11.147 44.7783C12.0601 45.5531 13.1115 46.2448 14.3013 46.8535C15.491 47.4622 16.9852 47.7666 18.7837 47.7666C19.9458 47.7666 21.0526 47.3239 22.104 46.4385C23.1554 45.5531 23.9993 44.4878 24.6357 43.2427C25.2998 41.9976 25.6318 40.8493 25.6318 39.7979C25.6318 36.3669 24.5666 33.5861 22.436 31.4556C20.3055 29.325 17.4694 27.7756 13.9277 26.8071C10.3861 25.811 6.49854 25.313 2.26514 25.313L12.9731 1.11621H35.8418ZM74.0254 26.5581C74.0254 29.6017 73.7349 32.6868 73.1538 35.8135C72.5728 38.9124 71.632 41.7762 70.3315 44.4048C69.0588 47.0057 67.3709 49.1086 65.2681 50.7134C63.1929 52.2905 60.6473 53.0791 57.6313 53.0791C54.6154 53.0791 52.056 52.2905 49.9531 50.7134C47.8503 49.1086 46.1486 47.0057 44.8481 44.4048C43.5754 41.7762 42.6484 38.9124 42.0674 35.8135C41.4863 32.6868 41.1958 29.6017 41.1958 26.5581C41.1958 23.5145 41.4863 20.4294 42.0674 17.3027C42.6484 14.1761 43.5754 11.3123 44.8481 8.71143C46.1486 6.08285 47.8503 3.97998 49.9531 2.40283C52.056 0.798014 54.6154 -0.00439453 57.6313 -0.00439453C60.6473 -0.00439453 63.1929 0.798014 65.2681 2.40283C67.3709 3.97998 69.0588 6.08285 70.3315 8.71143C71.632 11.3123 72.5728 14.1761 73.1538 17.3027C73.7349 20.4294 74.0254 23.5145 74.0254 26.5581ZM62.4873 25.064C62.4873 22.4077 62.4181 19.8068 62.2798 17.2612C62.1414 14.7157 61.8924 12.4329 61.5327 10.4131C61.2007 8.36556 60.7165 6.74691 60.0801 5.55713C59.4437 4.33968 58.6274 3.73096 57.6313 3.73096C56.6076 3.73096 55.7637 4.49186 55.0996 6.01367C54.4355 7.50781 53.9098 9.47233 53.5225 11.9072C53.1351 14.3145 52.8584 16.943 52.6924 19.793C52.554 22.6429 52.4849 25.396 52.4849 28.0522C52.4849 31.5939 52.6232 34.9972 52.8999 38.2622C53.2043 41.5272 53.73 44.1973 54.4771 46.2725C55.2241 48.32 56.2756 49.3438 57.6313 49.3438C58.6274 49.3438 59.4437 48.5967 60.0801 47.1025C60.7165 45.6084 61.2007 43.6439 61.5327 41.209C61.8924 38.7741 62.1414 36.1455 62.2798 33.3232C62.4181 30.4733 62.4873 27.7202 62.4873 25.064Z" fill="#888888"/>
</svg>
