<svg width="43" height="46" viewBox="0 0 43 46" fill="none" xmlns="http://www.w3.org/2000/svg">
<path fill-rule="evenodd" clip-rule="evenodd" d="M0.678552 0.824609C0.930383 0.564774 1.23888 0.356991 1.58381 0.214881C1.92875 0.072772 2.30234 -0.000454518 2.68008 2.12261e-06H40.316C40.6942 -0.000438658 41.0683 0.0729993 41.4136 0.215489C41.7589 0.357979 42.0676 0.566294 42.3195 0.826744C42.5713 1.08719 42.7606 1.39388 42.8748 1.72665C42.9891 2.05941 43.0257 2.41072 42.9823 2.75749L41.0344 18.2931V18.303L38.5325 38.2222C38.2624 40.3722 37.1422 42.3546 35.3866 43.7897C33.631 45.2249 31.3634 46.0118 29.0181 45.9999H13.9101C11.5648 46.0118 9.29718 45.2249 7.54158 43.7897C5.78597 42.3546 4.66582 40.3722 4.39568 38.2222V38.2156L1.93308 18.2997L0.0173324 2.75419C-0.0255983 2.40748 0.0114408 2.05632 0.126016 1.72376C0.240592 1.3912 0.430112 1.08477 0.682126 0.824609H0.678552ZM37.3101 4.94764L35.9805 15.5455H6.99052L5.68238 4.94764H37.3101Z" fill="#6F6F6F"/>
</svg>
