<svg width="75" height="75" viewBox="0 0 75 54" fill="none" xmlns="http://www.w3.org/2000/svg">
<path d="M36.4644 40.5449H30.9028V52H20.5684V40.5449H0.106934V32.7837L22.9756 -0.00439453H30.9028V32.7837H36.4644V40.5449ZM20.5684 32.7837V11.7412L5.75146 32.7837H20.5684ZM74.0254 26.5581C74.0254 29.6017 73.7349 32.6868 73.1538 35.8135C72.5728 38.9124 71.632 41.7762 70.3315 44.4048C69.0588 47.0057 67.3709 49.1086 65.2681 50.7134C63.1929 52.2905 60.6473 53.0791 57.6313 53.0791C54.6154 53.0791 52.056 52.2905 49.9531 50.7134C47.8503 49.1086 46.1486 47.0057 44.8481 44.4048C43.5754 41.7762 42.6484 38.9124 42.0674 35.8135C41.4863 32.6868 41.1958 29.6017 41.1958 26.5581C41.1958 23.5145 41.4863 20.4294 42.0674 17.3027C42.6484 14.1761 43.5754 11.3123 44.8481 8.71143C46.1486 6.08285 47.8503 3.97998 49.9531 2.40283C52.056 0.798014 54.6154 -0.00439453 57.6313 -0.00439453C60.6473 -0.00439453 63.1929 0.798014 65.2681 2.40283C67.3709 3.97998 69.0588 6.08285 70.3315 8.71143C71.632 11.3123 72.5728 14.1761 73.1538 17.3027C73.7349 20.4294 74.0254 23.5145 74.0254 26.5581ZM62.4873 25.064C62.4873 22.4077 62.4181 19.8068 62.2798 17.2612C62.1414 14.7157 61.8924 12.4329 61.5327 10.4131C61.2007 8.36556 60.7165 6.74691 60.0801 5.55713C59.4437 4.33968 58.6274 3.73096 57.6313 3.73096C56.6076 3.73096 55.7637 4.49186 55.0996 6.01367C54.4355 7.50781 53.9098 9.47233 53.5225 11.9072C53.1351 14.3145 52.8584 16.943 52.6924 19.793C52.554 22.6429 52.4849 25.396 52.4849 28.0522C52.4849 31.5939 52.6232 34.9972 52.8999 38.2622C53.2043 41.5272 53.73 44.1973 54.4771 46.2725C55.2241 48.32 56.2756 49.3438 57.6313 49.3438C58.6274 49.3438 59.4437 48.5967 60.0801 47.1025C60.7165 45.6084 61.2007 43.6439 61.5327 41.209C61.8924 38.7741 62.1414 36.1455 62.2798 33.3232C62.4181 30.4733 62.4873 27.7202 62.4873 25.064Z" fill="#6765D6"/>
</svg>
