<svg width="75" height="75" viewBox="0 0 71 71" fill="none" xmlns="http://www.w3.org/2000/svg">
<path d="M66.6113 0H50.2988C49.2172 0 48.1799 0.429658 47.4151 1.19446C46.6503 1.95925 46.2207 2.99654 46.2207 4.07812C46.2207 5.15971 46.6503 6.197 47.4151 6.9618C48.1799 7.72659 49.2172 8.15625 50.2988 8.15625H56.7558L45.6361 19.2827C39.8555 14.9626 32.6532 12.9921 25.4784 13.7679C18.3036 14.5436 11.6888 18.0079 6.96514 23.4637C2.24145 28.9196 -0.240607 35.962 0.0184098 43.1739C0.277426 50.3859 3.25829 57.2321 8.3612 62.335C13.4641 67.4379 20.3103 70.4188 27.5223 70.6778C34.7342 70.9368 41.7767 68.4548 47.2325 63.7311C52.6883 59.0074 56.1527 52.3926 56.9284 45.2178C57.7041 38.0431 55.7336 30.8407 51.4135 25.0601L62.5332 13.9336V20.3906C62.5332 21.4722 62.9628 22.5095 63.7276 23.2743C64.4924 24.0391 65.5297 24.4687 66.6113 24.4688C67.6929 24.4687 68.7302 24.0391 69.495 23.2743C70.2598 22.5095 70.6894 21.4722 70.6894 20.3906V4.07812C70.6894 2.99654 70.2598 1.95925 69.495 1.19446C68.7302 0.429658 67.6929 0 66.6113 0ZM42.9616 56.5704C40.1096 59.4212 36.4763 61.3624 32.5211 62.1486C28.566 62.9347 24.4665 62.5304 20.7411 60.9868C17.0157 59.4433 13.8316 56.8297 11.5914 53.4767C9.3512 50.1236 8.15552 46.1817 8.15552 42.1491C8.15552 38.1166 9.3512 34.1746 11.5914 30.8216C13.8316 27.4685 17.0157 24.855 20.7411 23.3114C24.4665 21.7679 28.566 21.3636 32.5211 22.1497C36.4763 22.9358 40.1096 24.877 42.9616 27.7278C46.779 31.5565 48.9227 36.7425 48.9227 42.1491C48.9227 47.5557 46.779 52.7418 42.9616 56.5704Z" fill="#4F88DD"/>
</svg>
