<svg width="62" height="43" viewBox="0 0 62 43" fill="none" xmlns="http://www.w3.org/2000/svg">
<path d="M19.3103 31.4546L22.2031 21.8985H16.5246L19.2031 31.4865C19.2269 31.5079 19.2388 31.5398 19.2388 31.5824C19.2388 31.625 19.2507 31.657 19.2746 31.6783C19.2746 31.657 19.2805 31.6197 19.2924 31.5664C19.3043 31.5132 19.3103 31.4759 19.3103 31.4546ZM23.4531 17.8076L24.7031 13.7167H14.2746L15.4174 17.8076H23.4531ZM30.3103 17.8076H35.2746L34.0246 13.7167H31.5246L30.3103 17.8076ZM46.346 31.4865L49.1317 21.8985H43.346L46.2388 31.4546C46.2388 31.4759 46.2448 31.5132 46.2567 31.5664C46.2686 31.6197 46.2865 31.657 46.3103 31.6783C46.3103 31.657 46.3162 31.625 46.3281 31.5824C46.34 31.5398 46.346 31.5079 46.346 31.4865ZM50.3103 17.8076L51.4888 13.7167H40.8817L42.096 17.8076H50.3103ZM64.9531 18.8303V20.8758C64.9531 21.174 64.846 21.4191 64.6317 21.6108C64.4174 21.8026 64.1436 21.8985 63.8103 21.8985H56.2031L50.346 41.586C50.1793 42.0973 49.8103 42.353 49.2388 42.353H43.5603C42.9888 42.353 42.6198 42.0973 42.4531 41.586L36.5246 21.8985H29.0603L23.096 41.586C22.9293 42.0973 22.5603 42.353 21.9888 42.353H16.3103C16.0484 42.353 15.8162 42.2785 15.6138 42.1293C15.4115 41.9802 15.2865 41.799 15.2388 41.586L9.52455 21.8985H2.09598C1.76265 21.8985 1.48884 21.8026 1.27455 21.6108C1.06027 21.4191 0.953125 21.174 0.953125 20.8758V18.8303C0.953125 18.532 1.06027 18.287 1.27455 18.0952C1.48884 17.9035 1.76265 17.8076 2.09598 17.8076H8.34598L7.16741 13.7167H2.09598C1.76265 13.7167 1.48884 13.6208 1.27455 13.429C1.06027 13.2373 0.953125 12.9922 0.953125 12.6939V10.6485C0.953125 10.3502 1.06027 10.1052 1.27455 9.9134C1.48884 9.72163 1.76265 9.62575 2.09598 9.62575H5.98884L2.81027 -1.36856C2.69122 -1.68817 2.75074 -1.98646 2.98884 -2.26345C3.22693 -2.51913 3.53646 -2.64697 3.91741 -2.64697H8.81027C9.42932 -2.64697 9.79836 -2.39129 9.91741 -1.87993L13.1317 9.62575H25.9531L29.4174 -1.87993C29.5841 -2.39129 29.9531 -2.64697 30.5246 -2.64697H35.0246C35.596 -2.64697 35.965 -2.39129 36.1317 -1.87993L39.6317 9.62575H52.6674L55.9888 -1.87993C56.1079 -2.39129 56.4769 -2.64697 57.096 -2.64697H61.9888C62.3698 -2.64697 62.6793 -2.51913 62.9174 -2.26345C63.1555 -1.98646 63.215 -1.68817 63.096 -1.36856L59.846 9.62575H63.8103C64.1436 9.62575 64.4174 9.72163 64.6317 9.9134C64.846 10.1052 64.9531 10.3502 64.9531 10.6485V12.6939C64.9531 12.9922 64.846 13.2373 64.6317 13.429C64.4174 13.6208 64.1436 13.7167 63.8103 13.7167H58.6317L57.4174 17.8076H63.8103C64.1436 17.8076 64.4174 17.9035 64.6317 18.0952C64.846 18.287 64.9531 18.532 64.9531 18.8303Z" fill="#878787"/>
</svg>
