<svg width="46" height="46" viewBox="0 0 46 46" fill="none" xmlns="http://www.w3.org/2000/svg">
<path fill-rule="evenodd" clip-rule="evenodd" d="M35.0791 20.0443C35.0791 22.0187 34.6902 23.9738 33.9346 25.7979C33.1791 27.622 32.0716 29.2794 30.6755 30.6755C29.2794 32.0716 27.622 33.1791 25.7979 33.9346C23.9738 34.6902 22.0187 35.0791 20.0443 35.0791C18.0699 35.0791 16.1149 34.6902 14.2908 33.9346C12.4667 33.1791 10.8093 32.0716 9.41318 30.6755C8.01707 29.2794 6.90962 27.622 6.15406 25.7979C5.39849 23.9738 5.0096 22.0187 5.0096 20.0443C5.0096 16.0569 6.59362 12.2327 9.41318 9.41318C12.2327 6.59362 16.0569 5.0096 20.0443 5.0096C24.0318 5.0096 27.8559 6.59362 30.6755 9.41318C33.4951 12.2327 35.0791 16.0569 35.0791 20.0443ZM32.3394 35.8809C28.3114 39.0081 23.243 40.4826 18.166 40.0043C13.089 39.5259 8.38522 37.1307 5.01211 33.3063C1.639 29.4819 -0.149813 24.5157 0.00983596 19.4187C0.169485 14.3218 2.26559 9.47729 5.87144 5.87144C9.47729 2.26559 14.3218 0.169485 19.4187 0.00983596C24.5157 -0.149813 29.4819 1.639 33.3063 5.01211C37.1307 8.38522 39.5259 13.089 40.0043 18.166C40.4826 23.243 39.0081 28.3114 35.8809 32.3394L45.2025 41.6609C45.4487 41.8904 45.6461 42.167 45.7831 42.4744C45.92 42.7817 45.9937 43.1136 45.9996 43.45C46.0056 43.7865 45.9437 44.1207 45.8176 44.4327C45.6916 44.7447 45.504 45.0281 45.2661 45.2661C45.0281 45.504 44.7447 45.6916 44.4327 45.8176C44.1207 45.9437 43.7865 46.0056 43.45 45.9996C43.1136 45.9937 42.7817 45.92 42.4744 45.7831C42.167 45.6461 41.8904 45.4487 41.6609 45.2025L32.3394 35.8809Z" fill="#888888"/>
</svg>
