<svg width="75" height="75" viewBox="0 0 74 54" fill="none" xmlns="http://www.w3.org/2000/svg">
<path d="M32.9741 34.1533C32.9741 37.8057 32.061 41.0568 30.2349 43.9067C28.4364 46.7567 25.96 48.9979 22.8057 50.6304C19.6514 52.2629 16.082 53.0791 12.0977 53.0791C10.3822 53.0791 8.59749 52.9131 6.74365 52.5811C4.91748 52.2767 3.368 51.7095 2.09521 50.8794C0.850098 50.0493 0.227539 48.8457 0.227539 47.2686C0.227539 46.1341 0.55957 45.1242 1.22363 44.2388C1.91536 43.3257 2.9668 42.8691 4.37793 42.8691C5.42936 42.8691 6.37012 43.1458 7.2002 43.6992C8.05794 44.2249 8.91569 44.8475 9.77344 45.5669C10.6589 46.2586 11.6549 46.8812 12.7617 47.4346C13.8685 47.9603 15.2104 48.2231 16.7876 48.2231C18.7521 48.2231 20.3569 47.6144 21.6021 46.397C22.8472 45.1795 23.4697 43.5747 23.4697 41.5825C23.4697 37.4598 22.1001 34.1118 19.3608 31.5386C16.6216 28.9653 12.9416 27.4989 8.3208 27.1392V24.1509C10.4513 23.9849 12.4159 23.556 14.2144 22.8643C16.0405 22.1725 17.507 21.1903 18.6138 19.9175C19.7482 18.6447 20.3154 17.0537 20.3154 15.1445C20.3154 13.014 19.596 11.2155 18.1572 9.74902C16.7184 8.25488 14.9338 7.50781 12.8032 7.50781C11.0324 7.50781 9.37223 8.15804 7.82275 9.4585C6.27327 10.759 4.98665 12.3084 3.96289 14.1069L1.59717 13.1108C2.56559 10.9526 3.7277 8.87744 5.0835 6.88525C6.43929 4.8654 8.12712 3.21908 10.147 1.94629C12.1668 0.645833 14.6709 -0.00439453 17.6592 -0.00439453C19.7897 -0.00439453 21.8234 0.424479 23.7603 1.28223C25.7248 2.1123 27.3296 3.32975 28.5747 4.93457C29.8475 6.51172 30.4839 8.40706 30.4839 10.6206C30.4839 12.9725 29.8337 14.9924 28.5332 16.6802C27.2604 18.368 25.7248 19.7791 23.9263 20.9136C26.3058 21.965 28.4087 23.5422 30.2349 25.645C32.061 27.7479 32.9741 30.584 32.9741 34.1533ZM73.0254 26.5581C73.0254 29.6017 72.7349 32.6868 72.1538 35.8135C71.5728 38.9124 70.632 41.7762 69.3315 44.4048C68.0588 47.0057 66.3709 49.1086 64.2681 50.7134C62.1929 52.2905 59.6473 53.0791 56.6313 53.0791C53.6154 53.0791 51.056 52.2905 48.9531 50.7134C46.8503 49.1086 45.1486 47.0057 43.8481 44.4048C42.5754 41.7762 41.6484 38.9124 41.0674 35.8135C40.4863 32.6868 40.1958 29.6017 40.1958 26.5581C40.1958 23.5145 40.4863 20.4294 41.0674 17.3027C41.6484 14.1761 42.5754 11.3123 43.8481 8.71143C45.1486 6.08285 46.8503 3.97998 48.9531 2.40283C51.056 0.798014 53.6154 -0.00439453 56.6313 -0.00439453C59.6473 -0.00439453 62.1929 0.798014 64.2681 2.40283C66.3709 3.97998 68.0588 6.08285 69.3315 8.71143C70.632 11.3123 71.5728 14.1761 72.1538 17.3027C72.7349 20.4294 73.0254 23.5145 73.0254 26.5581ZM61.4873 25.064C61.4873 22.4077 61.4181 19.8068 61.2798 17.2612C61.1414 14.7157 60.8924 12.4329 60.5327 10.4131C60.2007 8.36556 59.7165 6.74691 59.0801 5.55713C58.4437 4.33968 57.6274 3.73096 56.6313 3.73096C55.6076 3.73096 54.7637 4.49186 54.0996 6.01367C53.4355 7.50781 52.9098 9.47233 52.5225 11.9072C52.1351 14.3145 51.8584 16.943 51.6924 19.793C51.554 22.6429 51.4849 25.396 51.4849 28.0522C51.4849 31.5939 51.6232 34.9972 51.8999 38.2622C52.2043 41.5272 52.73 44.1973 53.4771 46.2725C54.2241 48.32 55.2756 49.3438 56.6313 49.3438C57.6274 49.3438 58.4437 48.5967 59.0801 47.1025C59.7165 45.6084 60.2007 43.6439 60.5327 41.209C60.8924 38.7741 61.1414 36.1455 61.2798 33.3232C61.4181 30.4733 61.4873 27.7202 61.4873 25.064Z" fill="#888888"/>
</svg>
