<svg width="75" height="75" viewBox="0 0 74 54" fill="none" xmlns="http://www.w3.org/2000/svg">
<path d="M34.8833 37.2661L29.6123 52H0.55957V49.0117C3.87988 45.304 6.78516 42.0252 9.27539 39.1753C11.7933 36.2977 13.8962 33.6691 15.584 31.2896C17.2995 28.91 18.5861 26.5858 19.4438 24.3169C20.3016 22.0203 20.7305 19.5993 20.7305 17.0537C20.7305 14.5081 19.9419 12.516 18.3647 11.0771C16.8153 9.61068 14.9199 8.87744 12.6787 8.87744C10.4375 8.87744 8.52832 9.47233 6.95117 10.6621C5.40169 11.8242 4.21191 13.7057 3.38184 16.3066H0.352051C0.905436 13.4844 1.81852 10.842 3.09131 8.37939C4.3641 5.88916 6.07959 3.8693 8.23779 2.31982C10.396 0.770345 13.0661 -0.00439453 16.248 -0.00439453C19.181 -0.00439453 21.7542 0.631999 23.9678 1.90479C26.1813 3.1499 27.9106 4.78239 29.1558 6.80225C30.4009 8.8221 31.0234 11.008 31.0234 13.3599C31.0234 16.2098 30.5531 18.783 29.6123 21.0796C28.6992 23.3761 27.5233 25.4928 26.0845 27.4297C24.6457 29.3665 23.1377 31.2204 21.5605 32.9912C19.9557 34.8174 18.2817 36.4499 16.5386 37.8887C14.7954 39.3275 13.1906 40.7663 11.7241 42.2051H20.9795C23.3867 42.2051 25.5588 41.9146 27.4956 41.3335C29.4325 40.7524 30.8989 39.3966 31.895 37.2661H34.8833ZM73.0254 26.5581C73.0254 29.6017 72.7349 32.6868 72.1538 35.8135C71.5728 38.9124 70.632 41.7762 69.3315 44.4048C68.0588 47.0057 66.3709 49.1086 64.2681 50.7134C62.1929 52.2905 59.6473 53.0791 56.6313 53.0791C53.6154 53.0791 51.056 52.2905 48.9531 50.7134C46.8503 49.1086 45.1486 47.0057 43.8481 44.4048C42.5754 41.7762 41.6484 38.9124 41.0674 35.8135C40.4863 32.6868 40.1958 29.6017 40.1958 26.5581C40.1958 23.5145 40.4863 20.4294 41.0674 17.3027C41.6484 14.1761 42.5754 11.3123 43.8481 8.71143C45.1486 6.08285 46.8503 3.97998 48.9531 2.40283C51.056 0.798014 53.6154 -0.00439453 56.6313 -0.00439453C59.6473 -0.00439453 62.1929 0.798014 64.2681 2.40283C66.3709 3.97998 68.0588 6.08285 69.3315 8.71143C70.632 11.3123 71.5728 14.1761 72.1538 17.3027C72.7349 20.4294 73.0254 23.5145 73.0254 26.5581ZM61.4873 25.064C61.4873 22.4077 61.4181 19.8068 61.2798 17.2612C61.1414 14.7157 60.8924 12.4329 60.5327 10.4131C60.2007 8.36556 59.7165 6.74691 59.0801 5.55713C58.4437 4.33968 57.6274 3.73096 56.6313 3.73096C55.6076 3.73096 54.7637 4.49186 54.0996 6.01367C53.4355 7.50781 52.9098 9.47233 52.5225 11.9072C52.1351 14.3145 51.8584 16.943 51.6924 19.793C51.554 22.6429 51.4849 25.396 51.4849 28.0522C51.4849 31.5939 51.6232 34.9972 51.8999 38.2622C52.2043 41.5272 52.73 44.1973 53.4771 46.2725C54.2241 48.32 55.2756 49.3438 56.6313 49.3438C57.6274 49.3438 58.4437 48.5967 59.0801 47.1025C59.7165 45.6084 60.2007 43.6439 60.5327 41.209C60.8924 38.7741 61.1414 36.1455 61.2798 33.3232C61.4181 30.4733 61.4873 27.7202 61.4873 25.064Z" fill="#48D287"/>
</svg>
