<svg width="42" height="48" viewBox="0 0 42 48" fill="none" xmlns="http://www.w3.org/2000/svg">
<path d="M21 0C17.8174 0 14.7652 1.26428 12.5147 3.51472C10.2643 5.76516 9 8.8174 9 12C9 15.1826 10.2643 18.2348 12.5147 20.4853C14.7652 22.7357 17.8174 24 21 24C24.1826 24 27.2348 22.7357 29.4853 20.4853C31.7357 18.2348 33 15.1826 33 12C33 8.8174 31.7357 5.76516 29.4853 3.51472C27.2348 1.26428 24.1826 0 21 0ZM6.027 27C5.23691 26.9968 4.45397 27.1497 3.72307 27.4498C2.99218 27.7498 2.32771 28.1912 1.76778 28.7487C1.20784 29.3061 0.763454 29.9686 0.460099 30.6981C0.156744 31.4277 0.000388536 32.2099 0 33C0 38.073 2.499 41.898 6.405 44.391C10.251 46.842 15.435 48 21 48C26.565 48 31.749 46.842 35.595 44.391C39.501 41.901 42 38.07 42 33C42 31.4087 41.3679 29.8826 40.2426 28.7574C39.1174 27.6321 37.5913 27 36 27H6.027Z" fill="#F3F3F3"/>
</svg>
