<?xml version="1.0" encoding="UTF-8"?>
<svg id="_레이어_2" data-name="레이어 2" xmlns="http://www.w3.org/2000/svg" viewBox="0 0 305.23 320.27">
  <defs>
    <style>
      .cls-1, .cls-2, .cls-3, .cls-4, .cls-5 {
        stroke-miterlimit: 10;
      }

      .cls-1, .cls-2, .cls-3, .cls-4, .cls-5, .cls-6 {
        stroke-width: 10px;
      }

      .cls-1, .cls-7 {
        fill: #df7c00;
      }

      .cls-1, .cls-5 {
        stroke: #df7c00;
      }

      .cls-2, .cls-3, .cls-4, .cls-6 {
        stroke: #fff;
      }

      .cls-2, .cls-5, .cls-6 {
        fill: none;
      }

      .cls-3, .cls-4, .cls-8 {
        fill: #fff;
      }

      .cls-3, .cls-7 {
        fill-rule: evenodd;
      }

      .cls-7, .cls-8 {
        stroke-width: 0px;
      }

      .cls-6 {
        stroke-linecap: round;
        stroke-linejoin: round;
      }
    </style>
  </defs>
  <g id="_레이어_1-2" data-name="레이어 1">
    <g>
      <path class="cls-7" d="M233.7,142.45l-153.47-.09c-3.82,0-6.8,2.04-6.37,4.38l18.41,100.91c.36,1.98,3.07,3.47,6.29,3.47h115.19c3.24,0,5.98-1.49,6.37-3.48l19.95-100.77c.46-2.35-2.51-4.41-6.35-4.42Z"/>
      <path class="cls-5" d="M233.7,142.45l-153.47-.09c-3.82,0-6.8,2.04-6.37,4.38l18.41,100.91c.36,1.98,3.07,3.47,6.29,3.47h115.19c3.24,0,5.98-1.49,6.37-3.48l19.95-100.77c.46-2.35-2.51-4.41-6.35-4.42Z"/>
    </g>
    <rect class="cls-4" x="156.76" y="177.41" width="47.93" height="47.93" rx="8.31" ry="8.31" transform="translate(-76.48 117.34) rotate(-30)"/>
    <rect class="cls-1" x="98.88" y="130.71" width="47.93" height="47.93" rx="8.31" ry="8.31" transform="translate(-72.53 183.73) rotate(-60)"/>
    <rect class="cls-1" x="173.12" y="108.44" width="47.93" height="47.93" rx="8.31" ry="8.31"/>
    <path class="cls-3" d="M94.3,156.21c-2.3,3.98-.93,9.06,3.04,11.35l27.11,15.65c3.98,2.3,9.06.93,11.35-3.04l15.65-27.11c2.1-3.64,1.13-8.2-2.1-10.71l-47.05-.03-8.01,13.88Z"/>
    <path class="cls-3" d="M221.08,148.2v-5.62l-47.93-.03v5.65c0,4.59,3.72,8.31,8.31,8.31h31.3c4.59,0,8.31-3.72,8.31-8.31Z"/>
    <path class="cls-2" d="M246.58,46.03l-177.81-.17c-4.43,0-7.88,3.85-7.38,8.25l21.33,190.09c.42,3.72,3.55,6.54,7.28,6.54h133.45c3.76,0,6.92-2.82,7.38-6.56l23.11-189.83c.54-4.42-2.91-8.32-7.36-8.32Z"/>
    <path class="cls-8" d="M296.99,292.78l-12.78-.96c-2.3-2.91-4.88-7.81-6.48-16.04l-.69-3.52-3.56-.44c-.39-.05-39.28-4.86-70-11.37-25.75-5.45-40.8,4.49-46.08,9.03-1.64,1.41-3.07,2.9-4.3,4.44-1.23-1.54-2.66-3.03-4.3-4.44-5.28-4.53-20.33-14.47-46.08-9.03-30.72,6.5-69.61,11.32-70,11.37l-3.56.44-.68,3.52c-1.59,8.14-4.12,13.02-6.4,15.95l-14.07,1.05c-4.76.35-8.33,4.51-7.97,9.27.36,4.76,4.51,8.32,9.27,7.97l106.29-7.95c4.83,8.54,15.77,18.21,36.32,18.21.21,0,.4-.04.6-.06.2.01.4.06.6.06,20.55,0,31.49-9.67,36.32-18.21l106.28,7.95c4.78.35,8.91-3.21,9.27-7.97.34-4.76-3.23-8.91-7.99-9.27ZM184.44,284.36c-4.51-.33-8.3,2.68-9.13,6.98-.02.11-2.48,11.65-22.21,11.65-.21,0-.4.05-.6.06-.2-.01-.4-.06-.6-.06-18.84,0-21.95-10.62-22.21-11.65-.83-4.31-4.76-7.3-9.13-6.98l-86.48,6.47c1.25-2.7,2.39-5.88,3.33-9.65,10.31-1.34,41.63-5.62,67.37-11.06,14.86-3.15,28.92-.58,37.61,6.86,4.46,3.83,5.91,7.62,5.79,9.7,0,.04.01.06.01.1,0,.15-.02.3,0,.45.01.23.12.42.17.64.07.36.13.7.27,1.02.12.27.28.5.45.74.19.29.37.56.61.8.22.21.47.38.72.55.26.18.51.36.81.48.31.13.64.19.97.26.23.04.42.15.66.17.09,0,.18-.04.27-.04s.18.04.28.04c.27-.01.48-.13.74-.19.29-.06.58-.11.85-.22.35-.14.65-.35.95-.56.2-.15.42-.28.6-.46.26-.26.47-.55.67-.87.15-.23.3-.44.41-.69.14-.33.2-.67.27-1.03.05-.22.15-.4.17-.63.01-.15-.01-.3-.01-.45,0-.04.01-.06.01-.1-.11-2.08,1.34-5.87,5.8-9.7,8.68-7.44,22.73-10.01,37.6-6.86,25.75,5.44,57.06,9.72,67.37,11.06.95,3.81,2.1,7.02,3.37,9.74l-87.74-6.56Z"/>
    <path class="cls-6" d="M276.15,80.72l24.07,24.09M289.14,49.36c0,24.5-19.86,44.36-44.36,44.36s-44.36-19.86-44.36-44.36S220.28,5,244.78,5s44.36,19.86,44.36,44.36Z"/>
  </g>
</svg>